<?xml version="1.0" encoding="UTF-8" standalone="no"?>
<!-- Created with Inkscape (http://www.inkscape.org/) -->

<svg
   xmlns:dc="http://purl.org/dc/elements/1.1/"
   xmlns:cc="http://creativecommons.org/ns#"
   xmlns:rdf="http://www.w3.org/1999/02/22-rdf-syntax-ns#"
   xmlns:svg="http://www.w3.org/2000/svg"
   xmlns="http://www.w3.org/2000/svg"
   xmlns:sodipodi="http://sodipodi.sourceforge.net/DTD/sodipodi-0.dtd"
   xmlns:inkscape="http://www.inkscape.org/namespaces/inkscape"
   width="270"
   height="460"
   viewBox="0 0 71.437499 121.70833"
   version="1.1"
   id="svg8"
   inkscape:version="0.92.5 (2060ec1f9f, 2020-04-08)"
   sodipodi:docname="cables.svg"
   inkscape:export-filename="/home/tina/Documents/courses/16740/cable_ws/src/cable_manipulation/cableImages/generated_01.png"
   inkscape:export-xdpi="96"
   inkscape:export-ydpi="96">
  <defs
     id="defs2" />
  <sodipodi:namedview
     id="base"
     pagecolor="#ffffff"
     bordercolor="#666666"
     borderopacity="1.0"
     inkscape:pageopacity="1"
     inkscape:pageshadow="2"
     inkscape:zoom="1.4"
     inkscape:cx="277.73105"
     inkscape:cy="234.31013"
     inkscape:document-units="mm"
     inkscape:current-layer="layer2"
     showgrid="false"
     units="px"
     inkscape:window-width="1848"
     inkscape:window-height="1016"
     inkscape:window-x="72"
     inkscape:window-y="27"
     inkscape:window-maximized="1"
     inkscape:pagecheckerboard="false" />
  <metadata
     id="metadata5">
    <rdf:RDF>
      <cc:Work
         rdf:about="">
        <dc:format>image/svg+xml</dc:format>
        <dc:type
           rdf:resource="http://purl.org/dc/dcmitype/StillImage" />
        <dc:title></dc:title>
      </cc:Work>
    </rdf:RDF>
  </metadata>
  <g
     inkscape:groupmode="layer"
     id="layer2"
     inkscape:label="Layer 2"
     transform="translate(0,-5.2916667)">
    <path
       style="color:#000000;font-style:normal;font-variant:normal;font-weight:normal;font-stretch:normal;font-size:medium;line-height:normal;font-family:sans-serif;font-variant-ligatures:normal;font-variant-position:normal;font-variant-caps:normal;font-variant-numeric:normal;font-variant-alternates:normal;font-feature-settings:normal;text-indent:0;text-align:start;text-decoration:none;text-decoration-line:none;text-decoration-style:solid;text-decoration-color:#000000;letter-spacing:normal;word-spacing:normal;text-transform:none;writing-mode:lr-tb;direction:ltr;text-orientation:mixed;dominant-baseline:auto;baseline-shift:baseline;text-anchor:start;white-space:normal;shape-padding:0;clip-rule:nonzero;display:inline;overflow:visible;visibility:visible;opacity:1;isolation:auto;mix-blend-mode:normal;color-interpolation:sRGB;color-interpolation-filters:linearRGB;solid-color:#000000;solid-opacity:1;vector-effect:none;fill:#344a64;fill-opacity:1;fill-rule:nonzero;stroke:none;stroke-width:1.72991109;stroke-linecap:butt;stroke-linejoin:miter;stroke-miterlimit:4;stroke-dasharray:none;stroke-dashoffset:0;stroke-opacity:1;color-rendering:auto;image-rendering:auto;shape-rendering:auto;text-rendering:auto;enable-background:accumulate"
       d="m 32.03639,14.260642 -1.471822,1.011531 c 0,0 0.155474,0.12487 0.467234,0.581925 0.311759,0.457054 0.728731,1.201607 1.09137,2.310537 0.725279,2.217862 1.235346,5.89387 0.23327,11.603105 -0.99278,5.656322 -3.495409,9.087398 -6.339256,12.675779 -2.843848,3.58838 -6.038536,7.321884 -8.108223,13.317774 -2.623549,7.60042 -3.135162,15.182399 -0.306164,23.325808 h 2.007788 c -2.905351,-8.018113 -2.400628,-15.404447 0.198559,-22.934284 1.992706,-5.772875 5.018557,-9.296611 7.887448,-12.916593 2.868892,-3.619981 5.570912,-7.347313 6.609323,-13.263603 1.029125,-5.863377 0.523194,-9.740136 -0.274927,-12.180739 -0.399056,-1.220301 -0.870832,-2.080777 -1.257299,-2.647358 -0.386462,-0.566581 -0.737301,-0.883882 -0.737301,-0.883882 z"
       id="path5748-6"
       inkscape:connector-curvature="0" />
    <path
       style="color:#000000;font-style:normal;font-variant:normal;font-weight:normal;font-stretch:normal;font-size:medium;line-height:normal;font-family:sans-serif;font-variant-ligatures:normal;font-variant-position:normal;font-variant-caps:normal;font-variant-numeric:normal;font-variant-alternates:normal;font-feature-settings:normal;text-indent:0;text-align:start;text-decoration:none;text-decoration-line:none;text-decoration-style:solid;text-decoration-color:#000000;letter-spacing:normal;word-spacing:normal;text-transform:none;writing-mode:lr-tb;direction:ltr;text-orientation:mixed;dominant-baseline:auto;baseline-shift:baseline;text-anchor:start;white-space:normal;shape-padding:0;clip-rule:nonzero;display:inline;overflow:visible;visibility:visible;opacity:1;isolation:auto;mix-blend-mode:normal;color-interpolation:sRGB;color-interpolation-filters:linearRGB;solid-color:#000000;solid-opacity:1;vector-effect:none;fill:#713332;fill-opacity:1;fill-rule:nonzero;stroke:none;stroke-width:1.72991121;stroke-linecap:butt;stroke-linejoin:miter;stroke-miterlimit:4;stroke-dasharray:none;stroke-dashoffset:0;stroke-opacity:1;color-rendering:auto;image-rendering:auto;shape-rendering:auto;text-rendering:auto;enable-background:accumulate"
       d="m 31.690107,14.068081 -0.78194,1.396671 c 0,0 16.46237,5.631599 17.181702,15.819478 0.168777,2.390423 -1.498236,4.048235 -4.57619,5.665741 -3.077953,1.617505 -7.492066,3.045918 -12.238158,4.706923 -9.492185,3.322011 -20.43301,7.649577 -24.7675771,16.98506 -2.1643782,4.661485 -1.8950359,8.77258 -0.1206969,12.35314 1.7743338,3.58056 5.003718,6.627361 8.680065,9.342899 7.352696,5.431073 16.554426,9.680197 19.981471,13.697106 3.505903,4.109342 4.730105,9.982711 5.011767,14.818091 0.281661,4.83538 -0.34374,8.59692 -0.34374,8.59692 l 1.952228,0.1946 c 0,0 0.646474,-3.88853 0.356859,-8.86044 C 41.736283,103.81236 40.548573,97.719 36.691382,93.197907 32.755347,88.5844 23.548726,84.498185 16.429149,79.239305 12.86936,76.609865 9.8482155,73.724119 8.2266429,70.451831 6.6050726,67.179543 6.3355007,63.518065 8.3604663,59.156838 12.404589,50.446889 22.663,46.339316 32.086329,43.041402 c 4.711665,-1.648955 9.185787,-3.07475 12.534666,-4.83463 3.34888,-1.75988 5.646295,-4.002066 5.434226,-7.005653 C 49.251135,19.812935 31.690107,14.06808 31.690107,14.068081 Z"
       id="path5203-3-5"
       inkscape:connector-curvature="0" />
    <path
       style="color:#000000;font-style:normal;font-variant:normal;font-weight:normal;font-stretch:normal;font-size:medium;line-height:normal;font-family:sans-serif;font-variant-ligatures:normal;font-variant-position:normal;font-variant-caps:normal;font-variant-numeric:normal;font-variant-alternates:normal;font-feature-settings:normal;text-indent:0;text-align:start;text-decoration:none;text-decoration-line:none;text-decoration-style:solid;text-decoration-color:#000000;letter-spacing:normal;word-spacing:normal;text-transform:none;writing-mode:lr-tb;direction:ltr;text-orientation:mixed;dominant-baseline:auto;baseline-shift:baseline;text-anchor:start;white-space:normal;shape-padding:0;clip-rule:nonzero;display:inline;overflow:visible;visibility:visible;opacity:1;isolation:auto;mix-blend-mode:normal;color-interpolation:sRGB;color-interpolation-filters:linearRGB;solid-color:#000000;solid-opacity:1;vector-effect:none;fill:#344a64;fill-opacity:1;fill-rule:nonzero;stroke:none;stroke-width:1.72991109;stroke-linecap:butt;stroke-linejoin:miter;stroke-miterlimit:4;stroke-dasharray:none;stroke-dashoffset:0;stroke-opacity:1;color-rendering:auto;image-rendering:auto;shape-rendering:auto;text-rendering:auto;enable-background:accumulate"
       d="m 17.484772,78.75082 c 1.592948,4.730371 4.311069,9.648026 8.403978,14.868858 11.300798,14.415062 39.679531,14.487512 39.679531,14.487512 l 0.01796,-1.5205 c 0,0 -27.480842,-0.31777 -38.015409,-13.755426 C 23.669893,87.85525 21.05691,83.207042 19.491812,78.75082 Z"
       id="path5748-6-3"
       inkscape:connector-curvature="0" />
  </g>
</svg>
